<?xml version="1.0" encoding="UTF-8"?>
<svg width="18px" height="18px" viewBox="0 0 18 18" version="1.1" xmlns="http://www.w3.org/2000/svg" xmlns:xlink="http://www.w3.org/1999/xlink">
    <title>系统管理员</title>
    <g id="首页" stroke="none" stroke-width="1" fill="none" fill-rule="evenodd">
        <g id="首页1440（最新设计）" transform="translate(-1333.000000, -19.000000)">
            <g id="系统管理员" transform="translate(1333.000000, 19.000000)">
                <rect id="矩形" fill="#D8D8D8" opacity="0" x="0" y="0" width="18" height="18"></rect>
                <path d="M14.9083156,3 L3.0931838,3 C2.62709472,3 2.25,3.36140224 2.25,3.80809541 L2.25,12.5757138 C2.25,13.0224069 2.62709472,13.3838092 3.0931838,13.3838092 L6.46893574,13.3838092 L6.46893574,14.1919046 C6.46893574,14.6385978 6.84603046,15 7.31211953,15 L10.6878715,15 C11.1539605,15 11.5310553,14.6385978 11.5310553,14.1919046 L11.5310553,13.3838092 L14.9068072,13.3838092 C15.3728963,13.3838092 15.75,13.0224069 15.75,12.5757138 L15.75,3.80809541 C15.7514994,3.36140224 15.3744047,3 14.9083156,3 L14.9083156,3 Z M14.8057458,12.3776653 L3.20178708,12.3776653 L3.20178708,4.01481749 L14.8057458,4.01481749 L14.8057458,12.3776653 L14.8057458,12.3776653 Z" id="形状" fill="#FFFFFF" fill-rule="nonzero"></path>
                <path d="M7.56100205,6.6776292 C7.56100205,5.90567402 8.221672,5.28261655 9.0286547,5.29562703 C9.82055362,5.31008312 10.4721733,5.97072642 10.4420057,6.72822551 C10.4088214,7.60860137 9.51586108,8.27791832 8.54144832,7.99024214 C7.95167218,7.81532346 7.56100205,7.27177449 7.56100205,6.6776292 L7.56100205,6.6776292 Z M9.00301226,8.45428262 C8.04066653,8.45428262 6.12050022,8.9833755 6.12050022,10.0328876 L6.12050022,10.4174196 C6.12050022,10.6400434 6.30904758,10.8221901 6.5428463,10.8221901 L11.4646866,10.8221901 C11.6969769,10.8221901 11.8870327,10.641489 11.8870327,10.4174196 L11.8870327,10.0328876 C11.8870327,8.9833755 9.96535799,8.45428262 9.00301226,8.45428262 L9.00301226,8.45428262 Z" id="形状" fill="#FFFFFF" fill-rule="nonzero"></path>
            </g>
        </g>
    </g>
</svg>