<?xml version="1.0" encoding="UTF-8"?>
<svg width="16px" height="16px" viewBox="0 0 16 16" version="1.1" xmlns="http://www.w3.org/2000/svg" xmlns:xlink="http://www.w3.org/1999/xlink">
    <title>新对话</title>
    <g id="智能应用" stroke="none" stroke-width="1" fill="none" fill-rule="evenodd">
        <g transform="translate(-16.000000, -156.000000)" fill-rule="nonzero" id="新对话">
            <g transform="translate(16.000000, 156.000000)">
                <rect id="矩形" fill="#000000" opacity="0" x="0" y="0" width="16" height="16"></rect>
                <path d="M3.01,14.1525 C2.8075,14.1525 2.60125,14.111875 2.401875,14.029375 C1.806875,13.783125 1.4375,13.23 1.4375,12.585625 L1.4375,4 C1.4375,2.586875 2.586875,1.4375 4,1.4375 L8,1.4375 C8.31066017,1.4375 8.5625,1.68933983 8.5625,2 C8.5625,2.31066017 8.31066017,2.5625 8,2.5625 L4,2.5625 C3.2075,2.5625 2.5625,3.2075 2.5625,4 L2.5625,12.585625 C2.5625,12.856875 2.769375,12.96375 2.8325,12.99 C2.895625,13.01625 3.1175,13.086875 3.309375,12.895 L5.01625,11.188125 C5.5,10.704375 6.14375,10.4375 6.828125,10.4375 L12,10.4375 C12.7925,10.4375 13.4375,9.7925 13.4375,9 L13.4375,8 C13.4375,7.68933984 13.6893398,7.4375 14,7.4375 C14.3106602,7.4375 14.5625,7.68933984 14.5625,8 L14.5625,9 C14.5625,10.413125 13.413125,11.5625 12,11.5625 L6.828125,11.5625 C6.444375,11.5625 6.083125,11.711875 5.811875,11.98375 L4.105,13.690625 C3.8025,13.993125 3.4125,14.1525 3.01,14.1525 Z M14,4.5625 L10,4.5625 C9.68933983,4.5625 9.4375,4.31066017 9.4375,4 C9.4375,3.68933983 9.68933983,3.4375 10,3.4375 L14,3.4375 C14.3106602,3.4375 14.5625,3.68933983 14.5625,4 C14.5625,4.31066017 14.3106602,4.5625 14,4.5625 L14,4.5625 Z M12,6.5625 C11.6893398,6.5625 11.4375,6.31066017 11.4375,6 L11.4375,2 C11.4375,1.68933983 11.6893398,1.4375 12,1.4375 C12.3106602,1.4375 12.5625,1.68933983 12.5625,2 L12.5625,6 C12.5625,6.31066017 12.3106602,6.5625 12,6.5625 Z" id="形状" fill="#273142"></path>
            </g>
        </g>
    </g>
</svg>