<?xml version="1.0" encoding="UTF-8"?>
<svg width="16px" height="16px" viewBox="0 0 16 16" version="1.1" xmlns="http://www.w3.org/2000/svg" xmlns:xlink="http://www.w3.org/1999/xlink">
    <title> 历史</title>
    <g id="智能应用" stroke="none" stroke-width="1" fill="none" fill-rule="evenodd">
        <g transform="translate(-16.000000, -196.000000)" fill-rule="nonzero" id="-历史">
            <g transform="translate(16.000000, 196.000000)">
                <rect id="矩形" fill="#000000" opacity="0" x="0" y="0" width="16" height="16"></rect>
                <path d="M8,14.6666719 C11.682,14.6666719 14.6666719,11.682 14.6666719,8 C14.6666719,4.318 11.682,1.33332813 8,1.33332813 C4.318,1.33332813 1.33332813,4.318 1.33332813,8 C1.33332813,11.682 4.318,14.6666719 8,14.6666719 Z M8,16 C3.582,16 0,12.418 0,8 C0,3.582 3.582,0 8,0 C12.418,0 16,3.582 16,8 C16,12.418 12.418,16 8,16 Z M8.66667187,8.39265625 L8.66667187,4.6646875 C8.66667187,4.302 8.368,4 8,4 C7.62932812,4 7.33331433,4.29734375 7.33331433,4.66467187 L7.33331433,8.66867187 C7.33219574,8.84341062 7.40082653,9.01137972 7.524,9.13532813 L9.41867187,11.03 C9.54351304,11.154081 9.71262888,11.2233365 9.88864209,11.222468 C10.0646553,11.2215832 10.2330729,11.1506465 10.3566719,11.0253281 C10.6151229,10.7668154 10.6171999,10.348394 10.3613281,10.0873281 L8.66667187,8.39267187 L8.66667187,8.39265625 Z" id="形状" fill="#3D3D3D"></path>
            </g>
        </g>
    </g>
</svg>