<?xml version="1.0" encoding="UTF-8"?>
<svg width="14px" height="14px" viewBox="0 0 14 14" version="1.1" xmlns="http://www.w3.org/2000/svg" xmlns:xlink="http://www.w3.org/1999/xlink">
    <title>问答模式</title>
    <g id="智能应用" stroke="none" stroke-width="1" fill="none" fill-rule="evenodd">
        <g transform="translate(-958.000000, -229.000000)" fill="#545A60" fill-rule="nonzero" id="问答模式">
            <g transform="translate(958.000000, 229.000000)">
                <path d="M12.646,2.184 C12.6548366,1.85262916 12.9306292,1.59116347 13.262,1.60000003 C13.5933708,1.60883659 13.8548365,1.88462917 13.846,2.21600001 L13.749,5.81600001 C13.729,6.53800001 12.683,6.61600001 12.559,5.904 C12.127845,3.48028277 10.2150622,1.5919458 7.78600001,1.19199999 C7.4674683,1.13054798 7.25546663,0.827042982 7.30739456,0.506820739 C7.35932249,0.186598496 7.65637192,-0.0343576826 7.97799999,0.00799999805 C9.86644675,0.31743061 11.5459675,1.38628223 12.626,2.96599999 L12.646,2.184 L12.646,2.184 Z M1.19999999,11.8 C1.19999999,12.1313709 0.931370841,12.4 0.599999994,12.4 C0.268629148,12.4 0,12.1313709 0,11.8 L0,8.31800001 C0,7.60100001 1.03000001,7.488 1.186,8.186 C1.71192814,10.5243411 3.62065127,12.2991954 5.991,12.654 C6.31705076,12.7044054 6.54123379,13.0086019 6.49284402,13.3349579 C6.44445426,13.6613139 6.14164876,13.8873723 5.81500001,13.841 C3.96658686,13.5659108 2.30490922,12.5631433 1.19999999,11.056 L1.19999999,11.8 L1.19999999,11.8 Z M8.6,8.39999999 C8.5469567,8.39999999 8.49608591,8.42107136 8.45857864,8.45857864 C8.42107136,8.49608591 8.39999999,8.5469567 8.39999999,8.6 L8.39999999,12.6 C8.39999999,12.71 8.48999999,12.8 8.6,12.8 L12.6,12.8 C12.710457,12.8 12.8,12.710457 12.8,12.6 L12.8,8.6 C12.8,8.48954304 12.710457,8.39999999 12.6,8.39999999 L8.6,8.39999999 L8.6,8.39999999 Z M8.6,7.2 L12.6,7.2 C13.3731987,7.2 14,7.82680135 14,8.6 L14,12.6 C14,13.3731987 13.3731987,14 12.6,14 L8.6,14 C7.82680135,14 7.2,13.3731987 7.2,12.6 L7.2,8.6 C7.2,7.82680135 7.82680135,7.2 8.6,7.2 L8.6,7.2 Z M3.4,1.19999999 C2.18497354,1.19999999 1.19999999,2.18497354 1.19999999,3.4 C1.19999999,4.61502645 2.18497354,5.60000001 3.4,5.60000001 C4.61502645,5.60000001 5.60000001,4.61502645 5.60000001,3.4 C5.60000001,2.18497354 4.61502645,1.19999999 3.4,1.19999999 Z M3.4,4.4408921e-16 C5.27776815,4.4408921e-16 6.8,1.52223185 6.8,3.4 C6.8,5.27776815 5.27776815,6.8 3.4,6.8 C1.52223185,6.8 4.4408921e-16,5.27776815 4.4408921e-16,3.4 C4.4408921e-16,1.52223185 1.52223185,4.4408921e-16 3.4,4.4408921e-16 L3.4,4.4408921e-16 Z" id="形状"></path>
            </g>
        </g>
    </g>
</svg>