<?xml version="1.0" encoding="UTF-8"?>
<svg width="14px" height="14px" viewBox="0 0 14 14" version="1.1" xmlns="http://www.w3.org/2000/svg" xmlns:xlink="http://www.w3.org/1999/xlink">
    <title>大模型</title>
    <g id="智能应用" stroke="none" stroke-width="1" fill="none" fill-rule="evenodd">
        <g transform="translate(-714.000000, -229.000000)" fill="#273142" fill-rule="nonzero" id="大模型">
            <g transform="translate(714.000000, 229.000000)">
                <path d="M6.98620483,2.97589242e-07 C7.06787487,-0.000148440926 7.13913901,0.0554729691 7.15897226,0.134844957 L7.84843052,2.89715208 C8.24649263,4.49238073 9.48975184,5.73794076 11.0820338,6.13673953 L13.8386098,6.82684406 C13.8845104,6.83826439 13.9239762,6.86753885 13.9482745,6.90818974 C13.9725728,6.94884063 13.9797002,6.99751637 13.9680797,7.04344622 C13.9521763,7.107337 13.9023826,7.15722287 13.8386098,7.17315564 L11.0820338,7.86326017 C9.48975184,8.26205895 8.24649263,9.50761897 7.84843052,11.1028476 L7.15897226,13.8651547 C7.13913901,13.9445267 7.06787487,14.0001481 6.98620483,14.0000003 C6.90453479,13.9998501 6.83347338,13.9439689 6.81392888,13.8645251 L6.12509911,11.1028476 C5.72703701,9.50761897 4.4837778,8.26205895 2.89149588,7.86326017 L0.133662823,7.17189633 C0.0550102383,7.15171618 0,7.08071137 0,6.9993702 C0,6.91802903 0.0550102383,6.84702422 0.133662823,6.82684406 L2.89086738,6.13610987 C4.48314931,5.7373111 5.72640852,4.49175107 6.12447063,2.89652242 L6.81392888,0.135474616 C6.83347338,0.0560307695 6.90453479,0.000149633673 6.98620483,2.97589242e-07 Z M6.98676482,4.18480151 L6.9226584,4.32332615 C6.36691373,5.46029605 5.44927668,6.37963131 4.314407,6.93640445 L4.17613825,6.99937019 L4.3150355,7.06422491 C5.44957026,7.62095007 6.36696164,8.5400392 6.9226584,9.67667356 L6.98613633,9.81456854 L7.05024275,9.67730322 C7.60598742,8.54033331 8.52362447,7.62099806 9.65849415,7.06422491 L9.79613441,6.99937019 L9.65786565,6.93640445 C8.52299597,6.37963131 7.60535892,5.46029605 7.04961425,4.32332615 L6.98676482,4.18480151 Z M12.0408851,0.255614951 C12.1230487,0.255614951 12.1945068,0.312027916 12.2137211,0.392061021 L12.2922829,0.708778698 C12.446264,1.32899125 12.9295761,1.81319782 13.5492715,1.96809355 L13.8654041,2.04680073 C13.9446295,2.06667069 14.0001482,2.13806671 13.9999997,2.21988789 C13.9998506,2.30170907 13.9440727,2.37290199 13.8647756,2.39248266 L13.5492715,2.4718195 C12.9303454,2.6269084 12.4470853,3.11106288 12.2922829,3.73113435 L12.2130926,4.04722236 C12.1929497,4.12602052 12.1220761,4.18113257 12.0408851,4.18113257 C11.9596942,4.18113257 11.8888206,4.12602052 11.8686777,4.04722236 L11.7894874,3.73113435 C11.634685,3.11106288 11.1514248,2.6269084 10.5324988,2.4718195 L10.2169946,2.39248266 C10.1376975,2.37290199 10.0819196,2.30170907 10.0817706,2.21988789 C10.0816221,2.13806671 10.1371408,2.06667069 10.2163661,2.04680073 L10.5324988,1.96809355 C11.1515657,1.81256816 11.6348778,1.32836161 11.7894874,0.708778698 L11.8680492,0.392061021 C11.8872634,0.312027916 11.9587216,0.255614951 12.0408851,0.255614951 Z" id="形状结合"></path>
            </g>
        </g>
    </g>
</svg>