<?xml version="1.0" encoding="UTF-8"?>
<svg width="14px" height="14px" viewBox="0 0 14 14" version="1.1" xmlns="http://www.w3.org/2000/svg" xmlns:xlink="http://www.w3.org/1999/xlink">
    <title>知识空间</title>
    <g id="智能应用" stroke="none" stroke-width="1" fill="none" fill-rule="evenodd">
        <g transform="translate(-836.000000, -229.000000)" id="知识空间">
            <g transform="translate(836.000000, 229.000000)">
                <rect id="矩形" fill="#D8D8D8" opacity="0" x="0" y="0" width="14" height="14"></rect>
                <path d="M4.33333333,1.16746433 C5.424,1.16746433 6.39288889,1.63728976 7,2.36396372 C7.62840457,1.60955729 8.6170785,1.16595189 9.66666667,1.16746433 L13.3333333,1.16746433 C13.7015232,1.16746433 14,1.43530984 14,1.76571403 L14,10.4395369 C14,10.7699411 13.7015232,11.0377866 13.3333333,11.0377866 L9,11.0377866 C8.26362033,11.0377866 7.66666667,11.5734776 7.66666667,12.234286 C7.66666667,12.6004148 7.38666667,12.798236 7.08355556,12.8285473 L7,12.8333333 C6.69422222,12.8333333 6.38844444,12.6658234 6.34044444,12.3308036 L6.33333333,12.2350836 C6.33333333,11.5742753 5.73637967,11.0385843 5,11.0385843 L0.666666667,11.0385843 C0.298476833,11.0385843 0,10.7707387 0,10.4403346 L0,1.76491636 C0,1.43451218 0.298476833,1.16666667 0.666666667,1.16666667 L4.33333333,1.16666667 L4.33333333,1.16746433 Z M4.33333333,2.36396372 L1.33333333,2.36396372 L1.33333333,9.84208487 L5,9.84208487 C5.47377778,9.84208487 5.91822222,9.95216282 6.30311111,10.1467934 L6.33333333,10.1627467 L6.33333333,4.15791513 C6.33346251,3.21429392 5.51929183,2.43174001 4.47022222,2.36715438 L4.33333333,2.36396372 Z M12.6666667,2.36396372 L9.66666667,2.36396372 C8.56209717,2.36396372 7.66666667,3.16750025 7.66666667,4.15871279 L7.66666667,10.161949 L7.69688889,10.1459957 C8.03911111,9.9736998 8.42844444,9.86681253 8.84355556,9.8460732 L9,9.84208487 L12.6666667,9.84208487 L12.6666667,2.36316605 L12.6666667,2.36396372 Z" id="形状" fill="#545A60" fill-rule="nonzero"></path>
            </g>
        </g>
    </g>
</svg>