<?xml version="1.0" encoding="UTF-8"?>
<svg width="14px" height="14px" viewBox="0 0 14 14" version="1.1" xmlns="http://www.w3.org/2000/svg" xmlns:xlink="http://www.w3.org/1999/xlink">
    <title>专家</title>
    <g id="专家问答" stroke="none" stroke-width="1" fill="none" fill-rule="evenodd">
        <g id="专家管理" transform="translate(-210.000000, -453.000000)">
            <g id="专家" transform="translate(210.000000, 453.000000)">
                <rect id="矩形" fill-opacity="0" fill="#D8D8D8" x="0" y="0" width="14" height="14"></rect>
                <g id="专家认证" transform="translate(0.875000, 1.750000)" fill="#FFA200" fill-rule="nonzero">
                    <path d="M9.49260988,0.2367519 C9.37317742,0.0874759256 9.18736092,0 8.99027762,0 L3.35355433,0 C3.16207,0.000114028643 2.98099689,0.08300548 2.86131921,0.225334943 L0.138249223,3.46534962 C-0.0529993059,3.69302425 -0.0450173478,4.0185687 0.157181348,4.23749705 L5.75288504,10.2956996 C5.87375812,10.4266967 6.04843292,10.5012371 6.23156045,10.4999845 C6.41468797,10.4987 6.5882053,10.4217476 6.70706392,10.2890898 L12.0989318,4.27835775 C12.2917481,4.06325285 12.3009452,3.74924014 12.1210193,3.52423713 L9.49260988,0.2373528 L9.49260988,0.2367519 Z M9.18717168,3.96108629 L6.52405342,7.36334207 C6.46662599,7.46429208 6.29245048,7.51536798 6.11890604,7.51536798 C5.9675959,7.52018083 5.82094113,7.46515067 5.71375866,7.36334207 L3.0506404,4.0115613 C2.8764649,3.80845949 2.9345234,3.55488268 3.16612634,3.45273087 C3.39772928,3.30070496 3.68739071,3.35117997 3.80350772,3.55488267 L6.17633347,6.44878302 L8.43493543,3.50380678 C8.55042136,3.30070496 8.8400828,3.24962907 9.07168574,3.40225587 C9.30328869,3.50380678 9.36134719,3.75798448 9.18717168,3.96108629 Z" id="形状"></path>
                </g>
            </g>
        </g>
    </g>
</svg>