<?xml version="1.0" encoding="UTF-8"?>
<svg width="16px" height="16px" viewBox="0 0 16 16" version="1.1" xmlns="http://www.w3.org/2000/svg" xmlns:xlink="http://www.w3.org/1999/xlink">
    <title>下载</title>
    <g id="首页" stroke="none" stroke-width="1" fill="none" fill-rule="evenodd">
        <g id="首页检索-详情页" transform="translate(-1196.000000, -803.000000)">
            <g id="下载" transform="translate(1196.000000, 803.000000)">
                <rect id="矩形" fill="#D8D8D8" opacity="0" x="0" y="0" width="16" height="16"></rect>
                <g transform="translate(1.600000, 0.800000)" fill="#3662E3" fill-rule="nonzero">
                    <path d="M9.19376457,5.57529191 C9.19376457,5.31877796 8.99832383,5.11352814 8.76592292,5.11352814 L3.59440409,5.11352814 C3.356721,5.11352814 3.16652621,5.32446145 3.16652621,5.57529191 C3.16652621,5.8318284 3.36198204,6.03705567 3.59440409,6.03705567 L8.76059848,6.03705567 C8.99832685,6.03705567 9.19376457,5.83182841 9.19376457,5.57529191 Z M3.48877554,7.43373329 C3.30914512,7.43373329 3.16652621,7.58770928 3.16652621,7.78151161 C3.16652621,7.97531392 3.30914512,8.12920298 3.48877554,8.12920298 L5.21083028,8.12920298 C5.39041542,8.12920298 5.53304942,7.97531393 5.53304942,7.78151161 C5.53304942,7.5877093 5.3904154,7.43373329 5.21083028,7.43373329 L3.48877554,7.43373329 Z M8.76059848,2.78766528 L3.59440409,2.78766528 C3.356721,2.78766528 3.16652621,2.99860824 3.16652621,3.24938719 C3.16652621,3.50593334 3.36198204,3.71115095 3.59440409,3.71115095 L8.76059848,3.71115095 C8.99832685,3.71115095 9.18844013,3.50024985 9.18844013,3.24938719 C9.19376457,2.99288288 8.99832685,2.78766528 8.76059848,2.78766528 Z M6.49970987,7.43373329 L6.28311022,7.43373329 C6.10354621,7.43373329 5.96093636,7.58770928 5.96093636,7.78151161 C5.96093636,7.97531392 6.10354622,8.12920298 6.28311022,8.12920298 L6.49970987,8.12920298 C6.67928897,8.12920298 6.82195316,7.97531393 6.82195316,7.78151161 C6.82729268,7.5877125 6.67928895,7.43373329 6.49970987,7.43373329 Z M7.61041988,10.8210635 C7.72686935,10.6968317 7.91582055,10.6968317 8.03227002,10.8210635 L9.37492223,12.2533974 L9.37492223,9.1613094 C9.37492223,8.99173841 9.50377728,8.85411091 9.66274079,8.85411091 L10.2384352,8.85411091 C10.3973535,8.85411091 10.5263293,8.9917384 10.5263293,9.1613094 L10.5263293,12.2533974 L11.8689664,10.8210635 C11.9854309,10.6968317 12.1743338,10.6968317 12.2907863,10.8210635 L12.7126516,11.2711866 C12.8291161,11.3954668 12.8291161,11.5969007 12.7126516,11.7212131 L10.3351927,14.2576711 C10.3249151,14.2686517 10.1399784,14.3892448 9.95380713,14.3893093 C9.76564072,14.3894058 9.57632731,14.2687483 9.56607988,14.2576711 L7.18850031,11.7212131 C7.07200556,11.5969007 7.07200556,11.3954668 7.18850031,11.2711866 L7.61041988,10.8210635 L7.61041988,10.8210635 Z" id="形状结合"></path>
                    <path d="M1.02428638,12.5415651 L1.02428638,1.85845103 C1.02428638,1.34535872 1.48299844,0.929217469 2.04852608,0.929217469 L10.7515026,0.929217469 C11.3170877,0.929217469 11.7757603,1.34535872 11.7757603,1.85845103 L11.7757603,8.86459559 L12.8,8.86459559 L12.8,1.85845103 C12.8,0.832308258 11.8826692,0 10.7515026,0 L2.04852608,0 C0.917431302,0 0,0.832308258 0,1.85845103 L0,12.5415651 C0,13.5676982 0.917431302,14.4 2.04852608,14.4 L6.14555314,14.4 L6.14555314,13.4707922 L2.04852608,13.4707922 C1.48299484,13.470789 1.02428638,13.0546703 1.02428638,12.5415651 Z" id="路径" stroke="#3562E3" stroke-width="0.5"></path>
                </g>
            </g>
        </g>
    </g>
</svg>