<?xml version="1.0" encoding="UTF-8"?>
<svg width="16px" height="16px" viewBox="0 0 16 16" version="1.1" xmlns="http://www.w3.org/2000/svg" xmlns:xlink="http://www.w3.org/1999/xlink">
    <title>收藏</title>
    <g id="首页" stroke="none" stroke-width="1" fill="none" fill-rule="evenodd">
        <g id="首页检索-详情页" transform="translate(-1124.000000, -803.000000)">
            <g id="收藏" transform="translate(1124.000000, 803.000000)">
                <rect id="矩形" fill="#D8D8D8" opacity="0" x="0" y="0" width="16" height="16"></rect>
                <path d="M6.43975729,1.63879639 C6.76316011,1.11943986 7.3572805,0.8 7.99981945,0.8 C8.6423584,0.8 9.23647879,1.11943986 9.55988161,1.63879639 L11.1851194,4.24901655 C11.2361879,4.33099204 11.3217608,4.3890957 11.420907,4.40911545 L14.5767787,5.0484978 C15.2047348,5.17574128 15.7130789,5.60557816 15.9116159,6.17718651 C16.110153,6.74879486 15.9689632,7.37603262 15.5408722,7.82422105 L13.3895354,10.0767519 C13.3218913,10.1474184 13.2891312,10.2414346 13.2992645,10.3358149 L13.6246009,13.3412159 C13.6892541,13.9391296 13.4093551,14.5241375 12.8896099,14.8773969 C12.3698647,15.2306562 11.6885843,15.2989407 11.1006258,15.0567061 L8.14551674,13.8384007 C8.05269762,13.8001119 7.9469413,13.8001119 7.85412218,13.8384007 L4.8993742,15.0567061 C4.31135278,15.2989818 3.62998588,15.230666 3.11021513,14.8773197 C2.59044439,14.5239734 2.31060379,13.9388491 2.37539908,13.3408781 L2.70037441,10.3358149 C2.71060534,10.2414838 2.67797849,10.147474 2.61046457,10.0767519 L0.459127837,7.82422105 C0.0310368321,7.37603262 -0.110152975,6.74879486 0.0883840708,6.17718651 C0.286921117,5.60557816 0.795265244,5.17574128 1.42322134,5.0484978 L4.57909294,4.40911545 C4.67823923,4.3890957 4.76381212,4.33099204 4.81488061,4.24901655 L6.43975729,1.63879639 Z M8.1816251,2.197116 C8.0988897,2.15194437 8.00035547,2.13937803 7.90771226,2.16218314 C7.81506905,2.18498824 7.73591093,2.24129544 7.68766259,2.3187101 L6.0627859,4.92893026 C5.80760554,5.33865537 5.38003373,5.62915291 4.88456976,5.72942479 L1.72869815,6.36880714 C1.60298895,6.39413647 1.50116654,6.48009167 1.46137329,6.59447416 C1.42158005,6.70885666 1.44982146,6.83440413 1.53551838,6.92408689 L3.68757727,9.17661772 C4.0251469,9.53022812 4.18828114,10.0002773 4.13712648,10.4719327 L3.81215114,13.4773337 C3.79940341,13.5967798 3.8553872,13.7135801 3.95920646,13.7841387 C4.06302573,13.8546972 4.19907935,13.8684111 4.31658509,13.8201616 L7.27169416,12.6021939 C7.73558306,12.4109485 8.26405585,12.4109485 8.72794475,12.6021939 L11.6826927,13.8201616 C11.8002697,13.8687405 11.93659,13.8551911 12.0406282,13.7845848 C12.1446663,13.7139786 12.2007356,13.5969615 12.1878488,13.4773337 L11.8625124,10.4719327 C11.8114554,10.0002281 11.9747229,9.53017256 12.3124227,9.17661772 L14.4641205,6.92408689 C14.5498143,6.83445123 14.5780992,6.70895744 14.5383855,6.59458975 C14.4986717,6.48022206 14.396949,6.39422946 14.2713018,6.36880714 L11.1150691,5.72976257 C10.6197389,5.62940417 10.1923134,5.338917 9.9372141,4.92926803 L8.31161524,2.3187101 C8.2801749,2.26820098 8.23526078,2.22618785 8.18126402,2.19677824 L8.1816251,2.197116 Z" id="形状" fill="#FF7D00" fill-rule="nonzero"></path>
            </g>
        </g>
    </g>
</svg>