<?xml version="1.0" encoding="UTF-8"?>
<svg width="16px" height="16px" viewBox="0 0 16 16" version="1.1" xmlns="http://www.w3.org/2000/svg" xmlns:xlink="http://www.w3.org/1999/xlink">
    <title>智能ai</title>
    <g id="首页" stroke="none" stroke-width="1" fill="none" fill-rule="evenodd">
        <g id="首页检索-详情页" transform="translate(-1268.000000, -803.000000)">
            <g id="智能ai" transform="translate(1268.000000, 803.000000)">
                <g id="机器人-(1)" transform="translate(0.000000, 0.800000)" fill="#3662E3" fill-rule="nonzero">
                    <path d="M8,0 C8.59173214,0 9.07142856,0.464936535 9.07142856,1.03846153 C9.07142856,1.40836153 8.87189284,1.73308846 8.57144642,1.91705193 L8.57142856,3.32307692 L13.7142857,3.32307692 C14.029875,3.32307692 14.2857143,3.57104422 14.2857143,3.87692307 L14.2857143,13.8461538 C14.2857143,14.1520327 14.029875,14.4 13.7142857,14.4 L2.28571429,14.4 C1.970125,14.4 1.71428571,14.1520327 1.71428571,13.8461538 L1.71428571,3.87692307 C1.71428571,3.57104422 1.97012498,3.32307692 2.28571429,3.32307692 L7.42857142,3.32307692 L7.42857142,1.91705193 C7.13276785,1.73596155 6.93478571,1.41841731 6.92871429,1.05564808 L6.92857142,1.03846153 C6.92857142,0.464936535 7.40826784,0 8,0 Z M13,4.56923077 L3.00000001,4.56923077 L3.00000001,13.1538462 L13,13.1538462 L13,4.56923077 Z M10.1428571,10.5403846 C10.1807452,10.5403846 10.2170815,10.5549725 10.2438724,10.5809391 C10.2706633,10.6069056 10.2857143,10.6421239 10.2857143,10.6788462 L10.2857143,11.5096154 C10.2857143,11.5463377 10.2706633,11.5815559 10.2438724,11.6075225 C10.2170815,11.6334891 10.1807452,11.6480769 10.1428571,11.6480769 L5.85714285,11.6480769 C5.81925478,11.6480769 5.78291851,11.6334891 5.7561276,11.6075225 C5.72933668,11.5815559 5.71428571,11.5463377 5.71428571,11.5096154 L5.71428571,10.6788462 C5.71428571,10.602376 5.77824503,10.5403846 5.85714285,10.5403846 L10.1428571,10.5403846 L10.1428571,10.5403846 Z M1,5.81538461 C1.07889782,5.81538461 1.14285714,5.87737595 1.14285714,5.95384615 L1.14285714,11.2153846 C1.14285714,11.2918548 1.07889782,11.3538461 1,11.3538461 L0.142857141,11.3538461 C0.0639593205,11.3538461 0,11.2918548 0,11.2153846 L0,5.95384615 C0,5.87737595 0.0639593205,5.81538461 0.142857141,5.81538461 L1,5.81538461 Z M15.8571429,5.81538461 C15.8950309,5.81538461 15.9313672,5.82997248 15.9581581,5.85593906 C15.984949,5.88190563 16,5.91712386 16,5.95384615 L16,11.2153846 C16,11.2918548 15.9360407,11.3538461 15.8571429,11.3538461 L15,11.3538461 C14.9211022,11.3538461 14.8571429,11.2918548 14.8571429,11.2153846 L14.8571429,5.95384615 C14.8571429,5.87737595 14.9211022,5.81538461 15,5.81538461 L15.8571429,5.81538461 L15.8571429,5.81538461 Z M4.99999999,6.92307692 C5.5522857,6.92307692 5.99999999,7.35701539 5.99999999,7.89230769 C5.99999999,8.42759999 5.5522857,8.86153846 4.99999999,8.86153846 C4.44771429,8.86153846 3.99999999,8.42759999 3.99999999,7.89230769 C3.99999999,7.35701539 4.44771429,6.92307692 4.99999999,6.92307692 L4.99999999,6.92307692 Z M11,6.92307692 C11.5522857,6.92307692 12,7.35701539 12,7.89230769 C12,8.42759999 11.5522857,8.86153846 11,8.86153846 C10.4477143,8.86153846 10,8.42759999 10,7.89230769 C10,7.35701539 10.4477143,6.92307692 11,6.92307692 L11,6.92307692 Z" id="形状"></path>
                </g>
                <rect id="矩形" fill="#D8D8D8" opacity="0" x="0" y="0" width="16" height="16"></rect>
            </g>
        </g>
    </g>
</svg>